<?xml version="1.0" encoding="utf-8" ?>
<svg baseProfile="full" height="200mm" version="1.1" viewBox="0,0,200,200" width="200mm" xmlns="http://www.w3.org/2000/svg" xmlns:ev="http://www.w3.org/2001/xml-events" xmlns:xlink="http://www.w3.org/1999/xlink"><defs /><rect fill="#1a1a1a" height="200" width="200" x="0" y="0" /><text alignment-baseline="middle" fill="#e1ed5e" style="dominant-baseline: central; font-size:9.0px; font-family:Arial;" text-anchor="middle" x="100.0" y="100.0">2025</text><line stroke="#e1ed5e" stroke-width="0.3" x1="100.0" x2="100.0" y1="15.0" y2="10.0" /><path d="M 100.0 14.0 a86.0,86.0 0 0,1 42.46469731375804,11.215312516191453" fill="none" id="id73" stroke="none" /><text fill="#e1ed5e" style="font-size:6.75px; font-family:Arial;" text-anchor="middle"><textPath startOffset="22.20632615414155" xlink:href="#id73">January</textPath></text><path d="M 100.36148047927253 79.00311137660856 l 0.4053134475529458 -23.5429623556958 a44.54645101650091,44.54645101650091 0 0,0 0.7665667092361874,0.0197981565074856 l -0.810506791984001 23.532497407045955" fill="red" stroke="none" /><path d="M 101.08401301168833 79.027996857942 l 3.2520390350649873 -62.916009426173986 a84.0,84.0 0 0,0 1.4433518046415523,0.08706692247878367 l -4.334552888546152 62.8507092343149" fill="red" stroke="none" /><path d="M 102.52436894288641 79.15227682838746 l 2.6190000837153544 -21.62924277989928 a42.78722801712797,42.78722801712797 0 0,0 0.7304090977198483,0.09482806376550315 l -2.9909239099430485 21.58095639296964" fill="red" stroke="none" /><path d="M 103.2404852339499 79.25152402106235 l 6.30358178733795 -40.3611514490463 a61.85043071550789,61.85043071550789 0 0,0 1.0504877249501285,0.17333947554292684 l -6.997398718426954 40.24666571056374" fill="red" stroke="none" /><path d="M 103.95276090670814 79.375362276772 l 11.09321305117364 -57.881947774468635 a79.93538202103252,79.93538202103252 0 0,0 1.3491325933491216,0.27062330624535524 l -12.087912053989887 57.682420512146074" fill="red" stroke="none" /><path d="M 105.36241919743992 79.69619591428918 l 8.678892255076699 -32.86101319945239 a54.9877825000369,54.9877825000369 0 0,0 0.913064563079541,0.24957503630332917 l -9.24325470737995 32.70675162232276" fill="red" stroke="none" /><path d="M 106.74666289553966 80.11325718540242 l 5.473554927050856 -16.134077069094023 a38.03726053128578,38.03726053128578 0 0,0 0.6182286445457905,0.21568783484437987 l -5.75046557565992 16.037468381077435" fill="red" stroke="none" /><line stroke="#e1ed5e" stroke-width="0.3" x1="143.23703022742887" x2="145.7803849466894" y1="26.81831364943548" y2="22.513508569990506" /><path d="M 143.74570117128098 25.957352633546492 a86.0,86.0 0 0,1 28.547481713284135,27.462654790039103" fill="none" id="id74" stroke="none" /><text fill="#e1ed5e" style="font-size:6.75px; font-family:Arial;" text-anchor="middle"><textPath startOffset="19.985693538727396" xlink:href="#id74">February</textPath></text><path d="M 112.19680574252982 82.90503203632743 l 13.193693927494575 -18.492200316559213 a43.71640446902106,43.71640446902106 0 0,0 0.6088127256732081,0.44232833679244427 l -13.510051969521573 18.262352744950093" fill="red" stroke="none" /><path d="M 113.06298171725822 83.55741782278167 l 13.699411226637702 -17.243666090101215 a43.0231216720844,43.0231216720844 0 0,0 0.5758882516747291,0.46566158251086986 l -13.994202876876923 17.005298410326212" fill="red" stroke="none" /><path d="M 113.89432698308785 84.25364557470407 l 23.077175181474562 -26.153219222812943 a55.879032241061076,55.879032241061076 0 0,0 0.7157545569816596,0.6426115083442208 l -23.52394072605221 25.752108705699428" fill="red" stroke="none" /><path d="M 114.94478906791727 85.2469230424477 l 15.684576076749545 -15.483373961002814 a43.03952803314091,43.03952803314091 0 0,0 0.5159327275854003,0.5317140275438723 l -15.948773068038054 15.211095737908828" fill="red" stroke="none" /><path d="M 115.9244219780498 86.31012108654704 l 16.436351223473515 -14.129973341480934 a42.67509603605809,42.67509603605809 0 0,0 0.47407842731573085,0.5611593259083729 l -16.677140264276364 13.844955065943456" fill="red" stroke="none" /><path d="M 116.38621287248628 86.86637796730983 l 16.892934467634237 -13.539761630549874 a42.64939675695135,42.64939675695135 0 0,0 0.45420778808672346,0.5767977653470857 l -17.123496336314926 13.24697147124975" fill="red" stroke="none" /><path d="M 117.04232023915458 87.72973835380427 l 17.66514314316832 -12.718686501746458 a42.76745893755939,42.76745893755939 0 0,0 0.42500137920591824,0.6011343107864636 l -17.881457142178117 12.4127256906282" fill="red" stroke="none" /><path d="M 117.45458315368197 88.32363383020206 l 17.96601212726278 -12.01849017887883 a42.615311654860776,42.615311654860776 0 0,0 0.402620057980715,0.6132179704790773 l -18.170228820601416 11.707454144422078" fill="red" stroke="none" /><line stroke="#e1ed5e" stroke-width="0.3" x1="172.23445277983987" x2="176.4835382374775" y1="55.19839476539836" y2="52.563006222186495" /><path d="M 173.08426987136738 54.67131705675599 a86.0,86.0 0 0,1 12.851231095245387,41.99856678651699" fill="none" id="id75" stroke="none" /><text fill="#e1ed5e" style="font-size:6.75px; font-family:Arial;" text-anchor="middle"><textPath startOffset="22.20632615414155" xlink:href="#id75">March</textPath></text><path d="M 118.3937258080291 89.86733742301442 l 23.295340779840433 -12.83284475377899 a47.596142700088855,47.596142700088855 0 0,0 0.38913677190702123,0.7210113387104876 l -23.51278565096592 12.429952431736043" fill="red" stroke="none" /><path d="M 118.73160827565052 90.50648371742162 l 19.438228492426678 -9.851644129095648 a42.79219169726012,42.79219169726012 0 0,0 0.3273398628544354,0.659897188965359 l -19.60492836823452 9.51558735163134" fill="red" stroke="none" /><path d="M 119.97218684219823 93.5106431181261 l 20.59311268895444 -6.691107919385087 a42.65288007191732,42.65288007191732 0 0,0 0.22086984806254137,0.7002177764870191 l -20.705238020785192 6.335639976471649" fill="red" stroke="none" /><path d="M 120.28053869075195 94.5502522615342 l 21.052483217621585 -5.657183201777588 a42.799329609112135,42.799329609112135 0 0,0 0.18506362485711172,0.7131256387781552 l -21.146743174348998 5.293961137450583" fill="red" stroke="none" /><path d="M 120.45610955862082 95.25157060432595 l 21.174888626558513 -4.915277918136729 a42.7378900852792,42.7378900852792 0 0,0 0.1601767541619733,0.7180409814028884 l -21.256359767722522 4.550058767183876" fill="red" stroke="none" /><path d="M 120.67395015179393 96.31383870115 l 23.424024750500177 -4.176499065956475 a44.79344615561143,44.79344615561143 0 0,0 0.12880918235388078,0.7602390857223433 l -23.49244579437428 3.772674191918294" fill="red" stroke="none" /><path d="M 120.78858239683441 97.02765380044208 l 23.458361576795625 -3.3540705445726515 a44.69693054143619,44.69693054143619 0 0,0 0.10234320239363086,0.7625757323336332 l -23.512620778247094 2.9497764701743536" fill="red" stroke="none" /><path d="M 120.87857604477298 97.74499172005257 l 23.7530580561139 -2.56546914290252 a44.891199194270314,44.891199194270314 0 0,0 0.07636393651385504,0.7689744193428755 l -23.793699118309984 2.1562191928552092" fill="red" stroke="none" /><line stroke="#e1ed5e" stroke-width="0.3" x1="184.98032266829074" x2="189.97916517819016" y1="98.17113171792111" y2="98.06355123074" /><path d="M 185.9800911702706 98.14961562048488 a86.0,86.0 0 0,1 -9.607161424134198,41.387399972396054" fill="none" id="id76" stroke="none" /><text fill="#e1ed5e" style="font-size:6.75px; font-family:Arial;" text-anchor="middle"><textPath startOffset="21.466115282336823" xlink:href="#id76">April</textPath></text><path d="M 120.99513854157772 99.54816195383933 l 23.770611098141842 -0.5115692117658386 a44.77611522174156,44.77611522174156 0 0,0 0.009950943382676963,0.7707115313126942 l -23.775895048642237 0.10232142239268158" fill="red" stroke="none" /><path d="M 120.9904718944345 100.63252640178507 l 23.99327720465023 0.7230128685822013 a45.00416835941883,45.00416835941883 0 0,0 -0.029998208087487117,0.7741204566968775 l -23.97727686371154 -1.135910572293085" fill="red" stroke="none" /><path d="M 120.95626037817324 101.35467743843564 l 24.006690912041158 1.551866695830537 a45.05679735101719,45.05679735101719 0 0,0 -0.05669312578940135,0.7735326584982313 l -23.97642122758742 -1.9648724908255384" fill="red" stroke="none" /><path d="M 120.89721153311464 102.0752229133903 l 25.27572946929132 2.5100369426901197 a46.40005483573748,46.40005483573748 0 0,0 -0.08576873042611033,0.7941119225100676 l -25.22877843736416 -2.9447451870849783" fill="red" stroke="none" /><path d="M 120.81339534386255 102.79330883721812 l 25.8403024171232 3.4679562803491955 a47.071976330358936,47.071976330358936 0 0,0 -0.11468963521270926,0.8021390415547591 l -25.77677873089389 -3.9122407938843637" fill="red" stroke="none" /><path d="M 120.5718875245553 104.21870165774334 l 25.247354485876134 5.177505277338511 a46.77276604154777,46.77276604154777 0 0,0 -0.1685288716214494,0.7873107820651348 l -25.15449157553024 -5.611329878819815" fill="red" stroke="none" /><path d="M 120.41448212921028 104.9243191809786 l 25.1299946663905 6.061780748115591 a46.850760487286244,46.850760487286244 0 0,0 -0.19585555654551207,0.7823455907596085 l -25.021927795549924 -6.493454178272596" fill="red" stroke="none" /><path d="M 119.79798401119884 107.00284435728193 l 24.480506999909608 8.65912308095337 a46.96681797031979,46.96681797031979 0 0,0 -0.276155359862773,0.7598609463346752 l -24.327827379041608 -9.079231824294176" fill="red" stroke="none" /><path d="M 119.54520255179757 107.68017299344265 l 24.291961434047423 9.54538412529078 a47.10007180857173,47.10007180857173 0 0,0 -0.30300459855367284,0.7520325643839513 l -24.12405422123636 -9.962116057517546" fill="red" stroke="none" /><path d="M 119.26925614724726 108.34839909993367 l 27.723930661807323 12.011384145553532 a51.21406428193259,51.21406428193259 0 0,0 -0.35742274798394774,0.8058939398540501 l -27.513066829092104 -12.486826421900268" fill="red" stroke="none" /><path d="M 118.97047184881838 109.00673069616215 l 23.489152913482634 11.152093435456026 a47.00210554140013,47.00210554140013 0 0,0 -0.35329187104578574,0.7278858959499547 l -23.293707785822136 -11.554768287371257" fill="red" stroke="none" /><line stroke="#e1ed5e" stroke-width="0.3" x1="174.80103733775053" x2="179.2010983576182" y1="140.37084112569926" y2="142.7455964860345" /><path d="M 175.68104954172406 140.8457921977663 a86.0,86.0 0 0,1 -30.038265399797805,32.042727171017184" fill="none" id="id77" stroke="none" /><text fill="#e1ed5e" style="font-size:6.75px; font-family:Arial;" text-anchor="middle"><textPath startOffset="22.206326154141568" xlink:href="#id77">May</textPath></text><path d="M 118.48025628344425 109.97397251340804 l 19.056716679099537 10.285093747505057 a42.65505954696126,42.65505954696126 0 0,0 -0.354288030535269,0.6431356853364334 l -18.876852239112758 -10.611599951239295" fill="red" stroke="none" /><path d="M 117.55443506779139 111.5257021239791 l 17.98106344848886 11.805813196455405 a42.51036652333434,42.51036652333434 0 0,0 -0.4068786504305831,0.6082283763734858 l -17.775181692647557 -12.113578487034697" fill="red" stroke="none" /><path d="M 117.14729908036423 112.12312394758627 l 17.58455339065969 12.432262324160007 a42.535497775665405,42.535497775665405 0 0,0 -0.42782650817062534,0.5942136010851614 l -17.36794709011346 -12.7331095306963" fill="red" stroke="none" /><path d="M 116.498646956653 112.99209946851258 l 20.471929282450066 16.12091841523368 a47.05731949177154,47.05731949177154 0 0,0 -0.5066103354191204,0.6320742883354489 l -20.191401034976092 -16.47092053714738" fill="red" stroke="none" /><path d="M 116.0416608686014 113.55231037782055 l 16.52487993920715 13.960543345651773 a42.63257792106694,42.63257792106694 0 0,0 -0.47841363444794577,0.5565031395211936 l -16.282123795188422 -14.242923584334495" fill="red" stroke="none" /><path d="M 115.07121518719521 114.62390073753431 l 18.724510091079647 18.168765658893637 a47.09044506555487,47.09044506555487 0 0,0 -0.5694790473669025,0.5768792683712044 l -18.40899041865721 -18.488385421245507" fill="red" stroke="none" /><path d="M 114.55890576462653 115.13401014063108 l 14.899259196930508 15.487808178695316 a42.490931268732396,42.490931268732396 0 0,0 -0.5314688098885303,0.5025369323601336 l -14.63045455265117 -15.74197974780137" fill="red" stroke="none" /><path d="M 112.63410532772338 116.77436683061366 l 15.547934921621428 20.643073416642387 a46.843273020495346,46.843273020495346 0 0,0 -0.6482551987877392,0.4795636984701566 l -15.190294752415124 -20.907647063852313" fill="red" stroke="none" /><line stroke="#e1ed5e" stroke-width="0.3" x1="143.8653032363475" x2="146.44561519142675" y1="172.8068346515853" y2="177.08958963109032" /><path d="M 144.38136562736335 173.6633856474863 a86.0,86.0 0 0,1 -40.68145358897372,12.25698825130547" fill="none" id="id78" stroke="none" /><text fill="#e1ed5e" style="font-size:6.75px; font-family:Arial;" text-anchor="middle"><textPath startOffset="21.466115282336833" xlink:href="#id78">June</textPath></text><path d="M 109.89434966115114 118.52300852407294 l 16.914861051466023 31.665963521584537 a56.900498187918295,56.900498187918295 0 0,0 -0.86789272477928,0.4540404544611695 l -16.367277424160246 -31.952433394990422" fill="red" stroke="none" /><path d="M 108.59647513512805 119.15986991738527 l 12.59536626966965 28.0726199396025 a51.7687380589536,51.7687380589536 0 0,0 -0.8161694700179916,0.35778471064612394 l -12.110276124993906 -28.285269203543077" fill="red" stroke="none" /><path d="M 107.93186726928326 119.44442032107085 l 5.533762560649069 13.565633605967891 a35.650902470803864,35.650902470803864 0 0,0 -0.5702088933347607,0.2268978864283053 l -5.299432591272442 -13.658878336802266" fill="red" stroke="none" /><path d="M 107.2578585660854 119.70592522655815 l 6.678968096592788 18.134170665303117 a40.32502938040831,40.32502938040831 0 0,0 -0.6534199388182949,0.23429314249235575 l -6.365828597144758 -18.246451348835432" fill="red" stroke="none" /><path d="M 105.88484417918355 120.15858648285463 l 7.832260398660246 26.82947819776172 a48.94933278839753,48.94933278839753 0 0,0 -0.8108546294837509,0.2291556177000836 l -7.369274601071889 -26.960322608800322" fill="red" stroke="none" /><path d="M 105.18746579009965 120.34920634021253 l 5.304808740090792 20.809515091837667 a42.47503001456257,42.47503001456257 0 0,0 -0.7100342746212241,0.17450914965382233 l -4.945821180726356 -20.897745499805517" fill="red" stroke="none" /><path d="M 104.48393922423573 120.51570834832081 l 6.135090866790685 28.070348106686886 a49.73297378926098,49.73297378926098 0 0,0 -0.8379024178642608,0.17559059843606611 l -5.650996987497046 -28.171794685849495" fill="red" stroke="none" /><path d="M 103.7750983002368 120.6578951692458 l 4.289006343041952 23.470075841265643 a44.85875175706842,44.85875175706842 0 0,0 -0.7607852655599954,0.1322722702176661 l -3.884372106009907 -23.540426690004317" fill="red" stroke="none" /><path d="M 100.90346689309514 120.98055641714683 l 1.211351970307968 28.130348270981862 a49.156417873065834,49.156417873065834 0 0,0 -0.8456768267673839,0.02912681982122497 l -0.7269547918659318 -28.14703188922918" fill="red" stroke="none" /><line stroke="#e1ed5e" stroke-width="0.3" x1="102.19456741930631" x2="102.32365962044197" y1="184.97166512339345" y2="189.96999836594603" /><path d="M 102.22038585953345 185.97133177190398 a86.0,86.0 0 0,1 -42.740103519485714,-10.115201625700543" fill="none" id="id79" stroke="none" /><text fill="#e1ed5e" style="font-size:6.75px; font-family:Arial;" text-anchor="middle"><textPath startOffset="22.20632615414155" xlink:href="#id79">July</textPath></text><path d="M 100.18074693466247 120.99922214144158 l 0.2774159658127806 32.23025332387548 a53.231447205164,53.231447205164 0 0,0 -0.9163258009504499,0.0 l 0.2774159658127584 -32.23025332387548" fill="red" stroke="none" /><path d="M 98.73552117531835 120.96189622390904 l -2.169579598142865 35.966203227824636 a57.031581289999764,57.031581289999764 0 0,0 -0.9794148583255973,-0.06754618293030244 l 2.7883572172473925 -35.92352870037805" fill="red" stroke="none" /><path d="M 98.01472825383883 120.90594882070398 l -2.0201222195141364 21.2729425149945 a42.36864471668794,42.36864471668794 0 0,0 -0.7254468364818871,-0.07519553077449789 l 2.3860016526016166 -21.235017615764242" fill="red" stroke="none" /><path d="M 97.2962882734958 120.8252237178851 l -4.123408815598037 31.76037971184037 a53.02692960152179,53.02692960152179 0 0,0 -0.9041632089263638,-0.12530878200326523 l 4.669500615711231 -31.684696364344497" fill="red" stroke="none" /><path d="M 93.42475214034765 119.94407469862007 l -8.709537677568541 26.417813250473728 a48.81648618164939,48.81648618164939 0 0,0 -0.7957790834109648,-0.26997147120313386 l 9.162986493916732 -26.263978792372473" fill="red" stroke="none" /><path d="M 92.7421414339146 119.70592522655815 l -11.839899262562978 32.146695534725545 a55.25774727488634,55.25774727488634 0 0,0 -0.8897280898733998,-0.3364190325837923 l 12.391497573196661 -31.938128252035117" fill="red" stroke="none" /><path d="M 91.7346041902142 119.30500536409082 l -11.783767886941929 27.522662858720444 a50.93917427799427,50.93917427799427 0 0,0 -0.8030908311166657,-0.35205141969754516 l 12.255779392716338 -27.315746885728444" fill="red" stroke="none" /><path d="M 91.07499286063937 119.00905698771935 l -15.669843944672976 33.37464630356545 a57.87019155277741,57.87019155277741 0 0,0 -0.8980553489261696,-0.4311211422182465 l 16.24201196159939 -33.099970884847636" fill="red" stroke="none" /><path d="M 90.42595943632237 118.69057910512821 l -11.787948312826849 23.01260151998155 a46.85605449683564,46.85605449683564 0 0,0 -0.714686691764322,-0.3738902989520364 l 12.182325907117665 -22.806281802084797" fill="red" stroke="none" /><line stroke="#e1ed5e" stroke-width="0.3" x1="58.666819895761336" x2="56.23545636021788" y1="174.27360380694188" y2="178.64263932499728" /><path d="M 58.180547188652646 175.14741091055294 a86.0,86.0 0 0,1 -31.652253787137756,-30.449443065178592" fill="none" id="id80" stroke="none" /><text fill="#e1ed5e" style="font-size:6.75px; font-family:Arial;" text-anchor="middle"><textPath startOffset="22.20632615414155" xlink:href="#id80">August</textPath></text><path d="M 89.4739219176387 118.17145234162733 l -19.324521792080724 33.360442894487825 a59.55329159240474,59.55329159240474 0 0,0 -0.8826141775986515,-0.5214640134580013 l 19.895903840707756 -33.02286030873607" fill="red" stroke="none" /><path d="M 88.54995079064634 117.60387380957326 l -18.721092882713318 28.782737144514716 a55.33548130219535,55.33548130219535 0 0,0 -0.7939990749406297,-0.5262192914244171 l 19.213766656393908 -28.456219831998983" fill="red" stroke="none" /><path d="M 87.36589467227662 116.77436683061367 l -37.189657509602576 49.37690015944903 a82.8154422053077,82.8154422053077 0 0,0 -1.1313033907528944,-0.8674351987779595 l 38.03408962884895 -48.729425618843706" fill="red" stroke="none" /><path d="M 86.79598089348748 116.32954008644616 l -16.250046249457455 20.09659176471807 a46.84447723725981,46.84447723725981 0 0,0 -0.6226520433155992,-0.5124002417134413 l 16.59356842131774 -19.813896404147446" fill="red" stroke="none" /><path d="M 86.24171649860922 115.8653595955263 l -18.38348822982489 21.198912739137413 a49.059696021476654,49.059696021476654 0 0,0 -0.6332383700333096,-0.5587592361915871 l 18.745668952764788 -20.879330361173537" fill="red" stroke="none" /><path d="M 83.28015986056508 112.70617746262583 l -22.455603545579052 17.065048547177106 a49.20407794120797,49.20407794120797 0 0,0 -0.5066584517830056,-0.6787517931041959 l 22.746023264057143 -16.675983874563602" fill="red" stroke="none" /><line stroke="#e1ed5e" stroke-width="0.3" x1="26.63291911575756" x2="22.317208475507996" y1="142.92168965132927" y2="145.44649492493687" /><path d="M 25.769776987707644 143.4266507060508 a86.0,86.0 0 0,1 -11.730757126820373,-40.83630448921669" fill="none" id="id81" stroke="none" /><text fill="#e1ed5e" style="font-size:6.75px; font-family:Arial;" text-anchor="middle"><textPath startOffset="21.46611528233685" xlink:href="#id81">September</textPath></text><line stroke="#e1ed5e" stroke-width="0.3" x1="15.007084014347285" x2="10.007500721073583" y1="101.09737516637583" y2="101.16192664675087" /><path d="M 14.007167355692545 101.11028546245083 a86.0,86.0 0 0,1 10.666146001902534,-42.60595125391555" fill="none" id="id82" stroke="none" /><text fill="#e1ed5e" style="font-size:6.75px; font-family:Arial;" text-anchor="middle"><textPath startOffset="22.20632615414155" xlink:href="#id82">October</textPath></text><line stroke="#e1ed5e" stroke-width="0.3" x1="26.266209847984243" x2="21.928928074336255" y1="57.711370442889674" y2="55.22380399835377" /><path d="M 25.398753493254645 57.213857153982495 a86.0,86.0 0 0,1 29.58750427330803,-30.492523968695096" fill="none" id="id83" stroke="none" /><text fill="#e1ed5e" style="font-size:6.75px; font-family:Arial;" text-anchor="middle"><textPath startOffset="21.46611528233685" xlink:href="#id83">November</textPath></text><line stroke="#e1ed5e" stroke-width="0.3" x1="56.762969772571076" x2="54.21961505331055" y1="26.818313649435495" y2="22.513508569990535" /><path d="M 56.25429882871897 25.957352633546506 a86.0,86.0 0 0,1 42.265352541879196,-11.944610805530505" fill="none" id="id84" stroke="none" /><text fill="#e1ed5e" style="font-size:6.75px; font-family:Arial;" text-anchor="middle"><textPath startOffset="22.20632615414155" xlink:href="#id84">December</textPath></text></svg>