<?xml version="1.0" encoding="utf-8" ?>
<svg baseProfile="full" height="200mm" version="1.1" viewBox="0,0,200,200" width="200mm" xmlns="http://www.w3.org/2000/svg" xmlns:ev="http://www.w3.org/2001/xml-events" xmlns:xlink="http://www.w3.org/1999/xlink"><defs /><rect fill="#1a1a1a" height="200" width="200" x="0" y="0" /><text alignment-baseline="middle" fill="#e1ed5e" style="dominant-baseline: central; font-size:9.0px; font-family:Arial;" text-anchor="middle" x="100.0" y="100.0">2024</text><line stroke="#e1ed5e" stroke-width="0.3" x1="100.0" x2="100.0" y1="15.0" y2="10.0" /><path d="M 100.0 14.0 a86.0,86.0 0 0,1 42.35913384403234,11.155469271406648" fill="none" id="id61" stroke="none" /><text fill="#e1ed5e" style="font-size:6.75px; font-family:Arial;" text-anchor="middle"><textPath startOffset="22.145653131862478" xlink:href="#id61">January</textPath></text><line stroke="#e1ed5e" stroke-width="0.3" x1="143.13028292997686" x2="145.6673583964461" y1="26.7553504044142" y2="22.446841604673864" /><path d="M 143.63769802327073 25.89364864446614 a86.0,86.0 0 0,1 29.32050498858742,28.57503671076993" fill="none" id="id62" stroke="none" /><text fill="#e1ed5e" style="font-size:6.75px; font-family:Arial;" text-anchor="middle"><textPath startOffset="20.669276256404974" xlink:href="#id62">February</textPath></text><line stroke="#e1ed5e" stroke-width="0.3" x1="172.87174338648825" x2="177.1583165268699" y1="56.24261187166439" y2="53.66864786411523" /><path d="M 173.72905801456457 55.72781907015455 a86.0,86.0 0 0,1 12.242430191666344,42.057860355516425" fill="none" id="id63" stroke="none" /><text fill="#e1ed5e" style="font-size:6.75px; font-family:Arial;" text-anchor="middle"><textPath startOffset="22.145653131862474" xlink:href="#id63">March</textPath></text><line stroke="#e1ed5e" stroke-width="0.3" x1="184.99686870605535" x2="189.99668451229388" y1="99.2704041080226" y2="99.22748670261217" /><path d="M 185.99683186730306 99.26182062694052 a86.0,86.0 0 0,1 -10.086455211305974,41.156179273409016" fill="none" id="id64" stroke="none" /><text fill="#e1ed5e" style="font-size:6.75px; font-family:Arial;" text-anchor="middle"><textPath startOffset="21.40746469413373" xlink:href="#id64">April</textPath></text><line stroke="#e1ed5e" stroke-width="0.3" x1="174.33088141563837" x2="178.70328620479359" y1="141.23008692659167" y2="143.65538615756765" /><path d="M 175.20536237346943 141.71514677278685 a86.0,86.0 0 0,1 -30.301960400862466,31.631185727798858" fill="none" id="id65" stroke="none" /><text fill="#e1ed5e" style="font-size:6.75px; font-family:Arial;" text-anchor="middle"><textPath startOffset="22.145653131862474" xlink:href="#id65">May</textPath></text><line stroke="#e1ed5e" stroke-width="0.3" x1="143.1302829299769" x2="145.66735839644613" y1="173.24464959558577" y2="177.55315839532614" /><path d="M 143.63769802327073 174.10635135553383 a86.0,86.0 0 0,1 -40.68552437913181,11.842963189579606" fill="none" id="id66" stroke="none" /><text fill="#e1ed5e" style="font-size:6.75px; font-family:Arial;" text-anchor="middle"><textPath startOffset="21.407464694133747" xlink:href="#id66">June</textPath></text><path d="M 102.51750503828377 120.84855314841334 l 2.183150920300021 18.079621411169587 a39.21095434929286,39.21095434929286 0 0,0 -0.6689465336819822,0.07495685438801168 l -1.8724684850172395 -18.11443402606457" fill="red" stroke="none" /><line stroke="#e1ed5e" stroke-width="0.3" x1="101.45913802915013" x2="101.54496967792366" y1="184.9874750549273" y2="189.98673829345242" /><path d="M 101.47630435890484 185.9873277026323 a86.0,86.0 0 0,1 -42.54439059252881,-10.42667462771756" fill="none" id="id67" stroke="none" /><text fill="#e1ed5e" style="font-size:6.75px; font-family:Arial;" text-anchor="middle"><textPath startOffset="22.145653131862474" xlink:href="#id67">July</textPath></text><path d="M 97.48249496171623 120.84855314841334 l -2.2163741460249966 18.35475737981933 a39.48808894470167,39.48808894470167 0 0,0 -0.6722794080418952,-0.08704002887366614 l 2.5311313759576857 -18.314005754745267" fill="red" stroke="none" /><path d="M 96.76829788921471 120.74984581791261 l -2.8214113551940456 18.11548484428796 a39.333879927032484,39.333879927032484 0 0,0 -0.6662831420121419,-0.10963663746762473 l 3.131972000259251 -18.064382208324666" fill="red" stroke="none" /><path d="M 95.00130118170881 120.39639698878247 l -5.549636863356949 22.644412220719644 a44.314542117249644,44.314542117249644 0 0,0 -0.7372984023289546,-0.18741837068904763 l 5.937540558911282 -22.545808618195334" fill="red" stroke="none" /><path d="M 91.92203290615298 119.3841803445677 l -11.506802143565357 27.61213624032041 a50.913818935822555,50.913818935822555 0 0,0 -0.8038684070591564,-0.3431236220033316 l 11.979105625794944 -27.410537968657675" fill="red" stroke="none" /><path d="M 90.6110303473126 118.78422872680471 l -14.849776860664512 29.70950119248633 a54.214008097757095,54.214008097757095 0 0,0 -0.8288877239042484,-0.42323597788436856 l 15.357591806282342 -29.450207262929123" fill="red" stroke="none" /><path d="M 89.97174638481275 118.45085714620012 l -17.17794304116053 31.605480403688127 a56.97204635092741,56.97204635092741 0 0,0 -0.855274701179513,-0.47440645939020065 l 17.717961930496145 -31.30594102886478" fill="red" stroke="none" /><line stroke="#e1ed5e" stroke-width="0.3" x1="58.13341422392154" x2="55.67067388415222" y1="173.97424548756322" y2="178.32567169271397" /><path d="M 57.64086615596768 174.84453072859336 a86.0,86.0 0 0,1 -31.369924170532247,-30.572349798747897" fill="none" id="id68" stroke="none" /><text fill="#e1ed5e" style="font-size:6.75px; font-family:Arial;" text-anchor="middle"><textPath startOffset="22.145653131862474" xlink:href="#id68">August</textPath></text><line stroke="#e1ed5e" stroke-width="0.3" x1="26.387840678322732" x2="22.057713659400548" y1="142.50000000000003" y2="145.00000000000006" /><path d="M 25.521815274538298 143.00000000000003 a86.0,86.0 0 0,1 -11.493303480769221,-40.785679425670985" fill="none" id="id69" stroke="none" /><text fill="#e1ed5e" style="font-size:6.75px; font-family:Arial;" text-anchor="middle"><textPath startOffset="21.40746469413373" xlink:href="#id69">September</textPath></text><path d="M 81.1358732173502 109.22738970284198 l -30.145566855070467 14.7457073624342 a54.55877063648293,54.55877063648293 0 0,0 -0.40430839863068757,-0.8448490530324629 l 30.394254511661064 -14.226045807336632" fill="red" stroke="none" /><path d="M 80.28708602549918 107.23885506374661 l -26.28505928765496 9.652237856434871 a49.00125063979698,49.00125063979698 0 0,0 -0.28318016406094665,-0.7921053183727658 l 26.44687962175985 -9.199597581681184" fill="red" stroke="none" /><path d="M 80.05021161711548 106.5578916946017 l -17.665890039700905 5.807128945211926 a39.595870979363184,39.595870979363184 0 0,0 -0.20671926518426806,-0.6475451539177942 l 17.76297402066243 -5.50301475760274" fill="red" stroke="none" /><path d="M 79.56144815229197 104.8234425847677 l -22.66760283725697 5.349492548910081 a44.290283143801936,44.290283143801936 0 0,0 -0.1682801682576651,-0.7414734711180878 l 22.7560938670723 -4.959584743852967" fill="red" stroke="none" /><path d="M 79.34024301695615 103.76489593502545 l -24.74951719610854 4.510186482926543 a46.15711397500209,46.15711397500209 0 0,0 -0.1353616327705831,-0.78072992686662 l 24.823293646371354 -4.084663523139331" fill="red" stroke="none" /><path d="M 79.22317932658666 103.0534771498775 l -26.719173966399843 3.926798447772332 a48.00618454162243,48.00618454162243 0 0,0 -0.1128270688757837,-0.8163604656436992 l 26.78264555183084 -3.467549673928547" fill="red" stroke="none" /><path d="M 79.13060592940153 102.33845913500099 l -27.294905874784163 3.0584511349950563 a48.46572427696891,48.46572427696891 0 0,0 -0.08554802121859392,-0.8275995023811141 l 27.343386288484425 -2.589447110331011" fill="red" stroke="none" /><path d="M 79.06263194458094 101.62068470465958 l -26.388314080026127 2.042622401156202 a47.46725195897395,47.46725195897395 0 0,0 -0.05591198989737012,-0.8129480621127433 l 26.419490031088564 -1.5893309148891157" fill="red" stroke="none" /><path d="M 79.00696218219943 100.54070618675478 l -30.7920201447911 0.793093212114757 a51.802232085359066,51.802232085359066 0 0,0 -0.015265793171524853,-0.8891559197549801 l 30.80109736956129 -0.26439037639072455" fill="red" stroke="none" /><line stroke="#e1ed5e" stroke-width="0.3" x1="15.003131293944662" x2="10.003315487706104" y1="100.72959589197737" y2="100.7725132973878" /><path d="M 14.003168132696942 100.73817937305945 a86.0,86.0 0 0,1 10.791469493833604,-42.45332614584628" fill="none" id="id70" stroke="none" /><text fill="#e1ed5e" style="font-size:6.75px; font-family:Arial;" text-anchor="middle"><textPath startOffset="22.145653131862435" xlink:href="#id70">October</textPath></text><path d="M 79.00077361379809 99.81974689727619 l -31.473669997989003 -0.27016360350163504 a52.47482949143601,52.47482949143601 0 0,0 0.01546400341219471,-0.9007006725802968 l 31.464394562978143 0.8104111920509842" fill="red" stroke="none" /><path d="M 79.01933749520258 99.09900007780938 l -30.66381927098711 -1.3168363377900618 a51.69208155574145,51.69208155574145 0 0,0 0.045682041493138,-0.8862194009113494 l 30.636695640037402 1.8430275320781233" fill="red" stroke="none" /><path d="M 79.0935383218832 98.0201363427161 l -32.94293465269573 -3.1197301622502933 a54.09032577381244,54.09032577381244 0 0,0 0.09547614125345846,-0.9236450576539594 l 32.884526118960615 3.6847797421871658" fill="red" stroke="none" /><path d="M 79.17382384314186 97.30363454192245 l -40.3400685391427 -5.222829508700119 a61.67676336460018,61.67676336460018 0 0,0 0.1449564987223755,-1.0488330147560236 l 40.24446752386511 5.91455083165621" fill="red" stroke="none" /><path d="M 79.407916724674 95.88100663000787 l -30.289318919960518 -6.058712085842585 a51.88933202214339,51.88933202214339 0 0,0 0.18221133938606388,-0.8719472202096962 l 30.180849869750087 6.57777575733769" fill="red" stroke="none" /><path d="M 79.83685265289637 94.1308016681162 l -26.85303671035897 -7.816527626035168 a48.967546991047634,48.967546991047634 0 0,0 0.2418616273479358,-0.8050786962101412 l 26.714898763007405 8.276343925836033" fill="red" stroke="none" /><path d="M 80.16572619554312 93.10060997987247 l -33.13284117176712 -11.525322074942482 a56.080168372524994,56.080168372524994 0 0,0 0.32408950940936504,-0.906536038225927 l 32.93011149231381 12.09239306954933" fill="red" stroke="none" /><path d="M 80.5471966667186 92.08871423366112 l -25.10572079532216 -10.210278085827236 a48.10252746964009,48.10252746964009 0 0,0 0.31764654154824673,-0.7622360645526097 l 24.926748409237437 10.639746659821109" fill="red" stroke="none" /><path d="M 81.63589988554816 89.8137432299009 l -24.627316410829668 -13.660357270747465 a49.162210040470605,49.162210040470605 0 0,0 0.415693724047573,-0.7344909793887355 l 24.389189321760725 14.081105020235306" fill="red" stroke="none" /><line stroke="#e1ed5e" stroke-width="0.3" x1="26.387840678322718" x2="22.05771365940052" y1="57.49999999999999" y2="54.99999999999999" /><path d="M 25.521815274538284 56.99999999999999 a86.0,86.0 0 0,1 29.574782752854787,-30.34633250058573" fill="none" id="id71" stroke="none" /><text fill="#e1ed5e" style="font-size:6.75px; font-family:Arial;" text-anchor="middle"><textPath startOffset="21.40746469413373" xlink:href="#id71">November</textPath></text><path d="M 83.64595745247003 86.82634096563983 l -19.535927389344597 -15.736760229116188 a46.085814347364476,46.085814347364476 0 0,0 0.5015742598603875,-0.6118390421958132 l 19.26290631024558 16.069801553010493" fill="red" stroke="none" /><path d="M 85.08716467003674 85.21462403516908 l -20.049291679266247 -19.87793124161307 a49.23307010026702,49.23307010026702 0 0,0 0.6001935115464584,-0.5950636832981324 l 19.70510624758981 20.219174935139876" fill="red" stroke="none" /><path d="M 86.96720088162412 83.53348406188908 l -23.632180002667447 -29.85848743095823 a59.07898637494394,59.07898637494394 0 0,0 0.8006329525399487,-0.6225770264801854 l 23.116137105492253 30.25976550905922" fill="red" stroke="none" /><path d="M 87.54013794807813 83.09580414077388 l -21.034390655891084 -28.53719069641013 a56.45161270108759,56.45161270108759 0 0,0 0.78499728113008,-0.5682774942740758 l 20.54141236438704 28.894068962057286" fill="red" stroke="none" /><path d="M 89.03521579738668 82.08984904055464 l -13.084146505843123 -21.37197000551073 a46.05905009578011,46.05905009578011 0 0,0 0.6778735070802763,-0.4070435641138726 l 12.71534024220541 21.593427570160525" fill="red" stroke="none" /><line stroke="#e1ed5e" stroke-width="0.3" x1="56.869717070023135" x2="54.33264160355391" y1="26.7553504044142" y2="22.446841604673864" /><path d="M 56.362301976729285 25.89364864446614 a86.0,86.0 0 0,1 42.16139366436587,-11.88097634709845" fill="none" id="id72" stroke="none" /><text fill="#e1ed5e" style="font-size:6.75px; font-family:Arial;" text-anchor="middle"><textPath startOffset="22.145653131862474" xlink:href="#id72">December</textPath></text><path d="M 89.65649057296885 81.72400993836675 l -17.615103211248982 -31.124199527687136 a56.76321654133244,56.76321654133244 0 0,0 0.8521397101718431,-0.4726675327247535 l 17.078219312921036 31.421999975845033" fill="red" stroke="none" /><path d="M 92.25597844496254 80.48000691201159 l -9.095784106359567 -22.92731775397473 a45.66566820301506,45.66566820301506 0 0,0 0.7311459191248061,-0.2828229483207268 l 8.700865924741231 23.080080590433496" fill="red" stroke="none" /><path d="M 93.61358852112211 79.99465700312896 l -12.14668845518994 -38.04932858239566 a60.9411247462882,60.9411247462882 0 0,0 0.9993165309392237,-0.30959081575405295 l 11.4917312913791 38.252235985956354" fill="red" stroke="none" /><path d="M 94.30408787586887 79.78721728523814 l -9.73701262569549 -34.553222768354786 a56.898950103763546,56.898950103763546 0 0,0 0.9424053863513674,-0.2568567787406683 l 9.142425838409444 34.715280041239595" fill="red" stroke="none" /><path d="M 95.35216902796891 79.52079915486377 l -8.725063712703564 -38.444240600467126 a60.42190218821691,60.42190218821691 0 0,0 1.0134697528596919,-0.22088101560841722 l 8.063831543224754 38.58835307420925" fill="red" stroke="none" /><path d="M 96.41257539226777 79.30868818359171 l -3.6903654349422577 -21.285047152295455 a42.602593115615946,42.602593115615946 0 0,0 0.7216524190238511,-0.11874763092942345 l 3.324435512865334 21.345260781720548" fill="red" stroke="none" /><path d="M 97.12497278360702 79.19773525538626 l -3.3661665998736954 -24.355904662669946 a45.58741892747535,45.58741892747535 0 0,0 0.7761196813965633,-0.10048423121413089 l 2.947569096586338 24.410100490084474" fill="red" stroke="none" /><path d="M 97.84075906011542 79.11130261209362 l -2.438782441949608 -23.593007840777545 a44.71872000707779,44.71872000707779 0 0,0 0.7642651493049266,-0.07237670424265683 l 2.0334177292596656 23.631396300525385" fill="red" stroke="none" /><path d="M 98.9189461498227 79.02784411241856 l -3.24316155053188 -62.91646766274432 a84.0,84.0 0 0,0 1.4406969575967197,-0.061869726296685634 l 2.1626388323343404 62.96286995746683" fill="red" stroke="none" /></svg>