<?xml version="1.0" encoding="utf-8" ?>
<svg baseProfile="full" height="200mm" version="1.1" viewBox="0,0,200,200" width="200mm" xmlns="http://www.w3.org/2000/svg" xmlns:ev="http://www.w3.org/2001/xml-events" xmlns:xlink="http://www.w3.org/1999/xlink"><defs /><rect fill="#1a1a1a" height="200" width="200" x="0" y="0" /><text alignment-baseline="middle" fill="#e1ed5e" style="dominant-baseline: central; font-size:9.0px; font-family:Arial;" text-anchor="middle" x="100.0" y="100.0">2025</text><line stroke="#e1ed5e" stroke-width="0.3" x1="100.0" x2="100.0" y1="15.0" y2="10.0" /><path d="M 100.0 14.0 a86.0,86.0 0 0,1 42.46469731375804,11.215312516191453" fill="none" id="id73" stroke="none" /><text fill="#e1ed5e" style="font-size:6.75px; font-family:Arial;" text-anchor="middle"><textPath startOffset="22.20632615414155" xlink:href="#id73">January</textPath></text><path d="M 100.36148047927253 79.00311137660856 l 0.4053134475529458 -23.5429623556958 a44.54645101650091,44.54645101650091 0 0,0 0.7665667092361874,0.0197981565074856 l -0.810506791984001 23.532497407045955" fill="red" stroke="none" /><path d="M 101.08401301168833 79.027996857942 l 3.2520390350649873 -62.916009426173986 a84.0,84.0 0 0,0 1.4433518046415523,0.08706692247878367 l -4.334552888546152 62.8507092343149" fill="red" stroke="none" /><path d="M 102.52436894288641 79.15227682838746 l 2.6190000837153544 -21.62924277989928 a42.78722801712797,42.78722801712797 0 0,0 0.7304090977198483,0.09482806376550315 l -2.9909239099430485 21.58095639296964" fill="red" stroke="none" /><path d="M 103.2404852339499 79.25152402106235 l 6.30358178733795 -40.3611514490463 a61.85043071550789,61.85043071550789 0 0,0 1.0504877249501285,0.17333947554292684 l -6.997398718426954 40.24666571056374" fill="red" stroke="none" /><path d="M 103.95276090670814 79.375362276772 l 11.09321305117364 -57.881947774468635 a79.93538202103252,79.93538202103252 0 0,0 1.3491325933491216,0.27062330624535524 l -12.087912053989887 57.682420512146074" fill="red" stroke="none" /><path d="M 105.36241919743992 79.69619591428918 l 8.678892255076699 -32.86101319945239 a54.9877825000369,54.9877825000369 0 0,0 0.913064563079541,0.24957503630332917 l -9.24325470737995 32.70675162232276" fill="red" stroke="none" /><path d="M 106.74666289553966 80.11325718540242 l 5.473554927050856 -16.134077069094023 a38.03726053128578,38.03726053128578 0 0,0 0.6182286445457905,0.21568783484437987 l -5.75046557565992 16.037468381077435" fill="red" stroke="none" /><line stroke="#e1ed5e" stroke-width="0.3" x1="143.23703022742887" x2="145.7803849466894" y1="26.81831364943548" y2="22.513508569990506" /><path d="M 143.74570117128098 25.957352633546492 a86.0,86.0 0 0,1 28.547481713284135,27.462654790039103" fill="none" id="id74" stroke="none" /><text fill="#e1ed5e" style="font-size:6.75px; font-family:Arial;" text-anchor="middle"><textPath startOffset="19.985693538727396" xlink:href="#id74">February</textPath></text><path d="M 112.19680574252982 82.90503203632743 l 13.193693927494575 -18.492200316559213 a43.71640446902106,43.71640446902106 0 0,0 0.6088127256732081,0.44232833679244427 l -13.510051969521573 18.262352744950093" fill="red" stroke="none" /><path d="M 113.06298171725822 83.55741782278167 l 13.699411226637702 -17.243666090101215 a43.0231216720844,43.0231216720844 0 0,0 0.5758882516747291,0.46566158251086986 l -13.994202876876923 17.005298410326212" fill="red" stroke="none" /><path d="M 113.89432698308785 84.25364557470407 l 23.077175181474562 -26.153219222812943 a55.879032241061076,55.879032241061076 0 0,0 0.7157545569816596,0.6426115083442208 l -23.52394072605221 25.752108705699428" fill="red" stroke="none" /><path d="M 114.94478906791727 85.2469230424477 l 15.684576076749545 -15.483373961002814 a43.03952803314091,43.03952803314091 0 0,0 0.5159327275854003,0.5317140275438723 l -15.948773068038054 15.211095737908828" fill="red" stroke="none" /><path d="M 115.9244219780498 86.31012108654704 l 16.436351223473515 -14.129973341480934 a42.67509603605809,42.67509603605809 0 0,0 0.47407842731573085,0.5611593259083729 l -16.677140264276364 13.844955065943456" fill="red" stroke="none" /><path d="M 116.38621287248628 86.86637796730983 l 16.892934467634237 -13.539761630549874 a42.64939675695135,42.64939675695135 0 0,0 0.45420778808672346,0.5767977653470857 l -17.123496336314926 13.24697147124975" fill="red" stroke="none" /><path d="M 117.04232023915458 87.72973835380427 l 17.66514314316832 -12.718686501746458 a42.76745893755939,42.76745893755939 0 0,0 0.42500137920591824,0.6011343107864636 l -17.881457142178117 12.4127256906282" fill="red" stroke="none" /><path d="M 117.45458315368197 88.32363383020206 l 17.96601212726278 -12.01849017887883 a42.615311654860776,42.615311654860776 0 0,0 0.402620057980715,0.6132179704790773 l -18.170228820601416 11.707454144422078" fill="red" stroke="none" /><line stroke="#e1ed5e" stroke-width="0.3" x1="172.23445277983987" x2="176.4835382374775" y1="55.19839476539836" y2="52.563006222186495" /><path d="M 173.08426987136738 54.67131705675599 a86.0,86.0 0 0,1 12.851231095245387,41.99856678651699" fill="none" id="id75" stroke="none" /><text fill="#e1ed5e" style="font-size:6.75px; font-family:Arial;" text-anchor="middle"><textPath startOffset="22.20632615414155" xlink:href="#id75">March</textPath></text><path d="M 118.3937258080291 89.86733742301442 l 23.295340779840433 -12.83284475377899 a47.596142700088855,47.596142700088855 0 0,0 0.38913677190702123,0.7210113387104876 l -23.51278565096592 12.429952431736043" fill="red" stroke="none" /><path d="M 118.73160827565052 90.50648371742162 l 19.438228492426678 -9.851644129095648 a42.79219169726012,42.79219169726012 0 0,0 0.3273398628544354,0.659897188965359 l -19.60492836823452 9.51558735163134" fill="red" stroke="none" /><path d="M 119.97218684219823 93.5106431181261 l 20.59311268895444 -6.691107919385087 a42.65288007191732,42.65288007191732 0 0,0 0.22086984806254137,0.7002177764870191 l -20.705238020785192 6.335639976471649" fill="red" stroke="none" /><line stroke="#e1ed5e" stroke-width="0.3" x1="184.98032266829074" x2="189.97916517819016" y1="98.17113171792111" y2="98.06355123074" /><path d="M 185.9800911702706 98.14961562048488 a86.0,86.0 0 0,1 -9.607161424134198,41.387399972396054" fill="none" id="id76" stroke="none" /><text fill="#e1ed5e" style="font-size:6.75px; font-family:Arial;" text-anchor="middle"><textPath startOffset="21.466115282336823" xlink:href="#id76">April</textPath></text><line stroke="#e1ed5e" stroke-width="0.3" x1="174.80103733775053" x2="179.2010983576182" y1="140.37084112569926" y2="142.7455964860345" /><path d="M 175.68104954172406 140.8457921977663 a86.0,86.0 0 0,1 -30.038265399797805,32.042727171017184" fill="none" id="id77" stroke="none" /><text fill="#e1ed5e" style="font-size:6.75px; font-family:Arial;" text-anchor="middle"><textPath startOffset="22.206326154141568" xlink:href="#id77">May</textPath></text><line stroke="#e1ed5e" stroke-width="0.3" x1="143.8653032363475" x2="146.44561519142675" y1="172.8068346515853" y2="177.08958963109032" /><path d="M 144.38136562736335 173.6633856474863 a86.0,86.0 0 0,1 -40.68145358897372,12.25698825130547" fill="none" id="id78" stroke="none" /><text fill="#e1ed5e" style="font-size:6.75px; font-family:Arial;" text-anchor="middle"><textPath startOffset="21.466115282336833" xlink:href="#id78">June</textPath></text><line stroke="#e1ed5e" stroke-width="0.3" x1="102.19456741930631" x2="102.32365962044197" y1="184.97166512339345" y2="189.96999836594603" /><path d="M 102.22038585953345 185.97133177190398 a86.0,86.0 0 0,1 -42.740103519485714,-10.115201625700543" fill="none" id="id79" stroke="none" /><text fill="#e1ed5e" style="font-size:6.75px; font-family:Arial;" text-anchor="middle"><textPath startOffset="22.20632615414155" xlink:href="#id79">July</textPath></text><line stroke="#e1ed5e" stroke-width="0.3" x1="58.666819895761336" x2="56.23545636021788" y1="174.27360380694188" y2="178.64263932499728" /><path d="M 58.180547188652646 175.14741091055294 a86.0,86.0 0 0,1 -31.652253787137756,-30.449443065178592" fill="none" id="id80" stroke="none" /><text fill="#e1ed5e" style="font-size:6.75px; font-family:Arial;" text-anchor="middle"><textPath startOffset="22.20632615414155" xlink:href="#id80">August</textPath></text><line stroke="#e1ed5e" stroke-width="0.3" x1="26.63291911575756" x2="22.317208475507996" y1="142.92168965132927" y2="145.44649492493687" /><path d="M 25.769776987707644 143.4266507060508 a86.0,86.0 0 0,1 -11.730757126820373,-40.83630448921669" fill="none" id="id81" stroke="none" /><text fill="#e1ed5e" style="font-size:6.75px; font-family:Arial;" text-anchor="middle"><textPath startOffset="21.46611528233685" xlink:href="#id81">September</textPath></text><line stroke="#e1ed5e" stroke-width="0.3" x1="15.007084014347285" x2="10.007500721073583" y1="101.09737516637583" y2="101.16192664675087" /><path d="M 14.007167355692545 101.11028546245083 a86.0,86.0 0 0,1 10.666146001902534,-42.60595125391555" fill="none" id="id82" stroke="none" /><text fill="#e1ed5e" style="font-size:6.75px; font-family:Arial;" text-anchor="middle"><textPath startOffset="22.20632615414155" xlink:href="#id82">October</textPath></text><line stroke="#e1ed5e" stroke-width="0.3" x1="26.266209847984243" x2="21.928928074336255" y1="57.711370442889674" y2="55.22380399835377" /><path d="M 25.398753493254645 57.213857153982495 a86.0,86.0 0 0,1 29.58750427330803,-30.492523968695096" fill="none" id="id83" stroke="none" /><text fill="#e1ed5e" style="font-size:6.75px; font-family:Arial;" text-anchor="middle"><textPath startOffset="21.46611528233685" xlink:href="#id83">November</textPath></text><line stroke="#e1ed5e" stroke-width="0.3" x1="56.762969772571076" x2="54.21961505331055" y1="26.818313649435495" y2="22.513508569990535" /><path d="M 56.25429882871897 25.957352633546506 a86.0,86.0 0 0,1 42.265352541879196,-11.944610805530505" fill="none" id="id84" stroke="none" /><text fill="#e1ed5e" style="font-size:6.75px; font-family:Arial;" text-anchor="middle"><textPath startOffset="22.20632615414155" xlink:href="#id84">December</textPath></text></svg>